<svg width="64" height="64" fill="none" xmlns="http://www.w3.org/2000/svg"><path d="M24 45c11.598 0 21-9.402 21-21S35.598 3 24 3 3 12.402 3 24s9.402 21 21 21z" fill="#ADE8F4"/><path d="M43.53 31.71A21 21 0 1114.47 5.29 20.992 20.992 0 0034 34a20.782 20.782 0 009.53-2.29z" fill="#48CAE4"/><path d="M24 41c9.389 0 17-7.611 17-17S33.389 7 24 7 7 14.611 7 24s7.611 17 17 17z" fill="#00B4D8"/><path d="M24 7a17 17 0 100 34 17 17 0 000-34zm11.925 26.9c-.635.057-1.275.1-1.925.1a21 21 0 01-21-21c0-.166.02-.326.023-.491a16.968 16.968 0 0122.9 21.4l.002-.009z" fill="#0096C7"/><path d="M24 38l-8-13 8 4 8-4-8 13zm0-27v14l8-4-8-10z" fill="#ADE8F4"/><path d="M16 21l8 4V11l-8 10zm8 17l-8-13 8 4v9z" fill="#48CAE4"/><path d="M19 57l-4-4v2h-4a2 2 0 01-2-2v-4h2l-4-4-4 4h2v4a6 6 0 006 6h4v2l4-4zM45 7l4 4V9h4a2 2 0 012 2v4h-2l4 4 4-4h-2v-4a6 6 0 00-6-6h-4V3l-4 4z" fill="#ADE8F4"/><path d="M57 14v-4a3 3 0 00-3-3h-4a2.99 2.99 0 01-2.86-2.14L45 7l4 4V9h4a2 2 0 012 2v4h-2l4 4 2.14-2.14A2.99 2.99 0 0157 14zM15 57h-4a4 4 0 01-4-4v-4a3.984 3.984 0 011.172-2.828L7 45l-4 4h2v4a6 6 0 006 6h4v2l4-4-1.172-1.172A3.985 3.985 0 0115 57z" fill="#48CAE4"/><path d="M41 61c11.598 0 21-9.402 21-21s-9.402-21-21-21-21 9.402-21 21 9.402 21 21 21z" fill="#FFFA48"/><path d="M60.53 47.71a21 21 0 11-29.06-26.42 20.993 20.993 0 0029.06 26.42z" fill="#FCEA42"/><path d="M41 57c9.389 0 17-7.611 17-17s-7.611-17-17-17-17 7.611-17 17 7.611 17 17 17z" fill="#FDC741"/><path d="M41 23a17 17 0 100 34 17 17 0 000-34zm11.925 26.9c-.635.057-1.275.1-1.925.1a21 21 0 01-21-21c0-.166.02-.326.023-.491a16.968 16.968 0 0122.9 21.4l.002-.009z" fill="#EFAD1B"/><path d="M11 25a1 1 0 100-2 1 1 0 000 2zm4.707 27.293A1 1 0 0014 53v1h-3a1 1 0 01-1-1v-3h1a1 1 0 00.707-1.707l-4-4a1 1 0 00-1.414 0l-4 4A1 1 0 003 50h1v3a7.008 7.008 0 007 7 1 1 0 100-2 5.006 5.006 0 01-5-5v-4a1 1 0 00-.649-.937L7 46.414l1.649 1.649A1 1 0 008 49v4a3 3 0 003 3h4a1 1 0 00.937-.649L17.586 57l-1.649 1.649A1 1 0 0014 59v2a1 1 0 001.707.707l4-4a1 1 0 000-1.414l-4-4zm32.586-40.586A1 1 0 0050 11v-1h3a1 1 0 011 1v3h-1a1 1 0 00-.707 1.707l4 4a1 1 0 001.414 0l4-4A1 1 0 0061 14h-1v-3a7.008 7.008 0 00-7-7h-3V3a1 1 0 00-1.707-.707l-4 4a1 1 0 000 1.414l4 4zm-.23-6.356A1 1 0 0049 6h4a5.006 5.006 0 015 5v4a1 1 0 00.649.937L57 17.586l-1.649-1.649A1 1 0 0056 15v-4a3 3 0 00-3-3h-4a1 1 0 00-.937.649L46.414 7l1.649-1.649z" fill="#323232"/><path d="M57.967 26a1 1 0 00-1.542 1.275 20 20 0 11-2.695-2.695 1.001 1.001 0 001.275-1.542A22.036 22.036 0 0041 18h-.042a17.987 17.987 0 00-30.829-5.469 1 1 0 001.541 1.276 15.99 15.99 0 0127.2 4.3c-2.259.218-4.47.787-6.554 1.686l-7.532-9.416a1.036 1.036 0 00-1.562 0l-8 10a1.001 1.001 0 00.334 1.52l8 4A1 1 0 0024 26c.018 0 .035-.012.053-.013-.372.449-.721.916-1.057 1.393l-6.549-3.275a1 1 0 00-1.3 1.419l4.858 7.895a21.884 21.884 0 00-.985 5.755A15.986 15.986 0 018 24a15.82 15.82 0 011.619-7.011 1.001 1.001 0 10-1.8-.879 17.966 17.966 0 0011.22 25.161c.041.715.115 1.422.223 2.117a19.978 19.978 0 1123.111-27.242 1 1 0 001.838-.786 21.985 21.985 0 10-24.5 30.191A22 22 0 1057.967 26zM25 23.382v-9.531l5.446 6.808L25 23.382zm-2-9.531v9.531l-5.446-2.723L23 13.851zm-4.31 13.612l3.226 1.613c-.37.645-.708 1.308-1.011 1.987l-2.215-3.6z" fill="#323232"/><path d="M28 41a1 1 0 100-2 1 1 0 000 2zm26 0a1 1 0 100-2 1 1 0 000 2z" fill="#323232"/><path d="M29.7 52.723a1 1 0 00.166 1.4A17.808 17.808 0 0041 58a18 18 0 10-18-18 17.808 17.808 0 003.873 11.133 1 1 0 101.57-1.239A15.823 15.823 0 0125 40a16 16 0 1116 16 15.823 15.823 0 01-9.894-3.443 1 1 0 00-1.406.166z" fill="#323232"/><path d="M31.77 35.027A1 1 0 0031 36v8a1 1 0 002 0v-3.764l2.1 4.211A1 1 0 0037 44v-8a1 1 0 00-2 0v3.764l-2.1-4.211a1 1 0 00-1.13-.526zM44 37a1 1 0 000-2h-4a1 1 0 00-1 1v8a1 1 0 002 0v-3h2a1 1 0 000-2h-2v-2h3zm8-2h-4a1 1 0 000 2h1v7a1 1 0 002 0v-7h1a1 1 0 000-2zm-10.445-7.832a1 1 0 00-1.11 0l-6 4a1 1 0 101.11 1.664L41 29.2l5.445 3.63a1 1 0 101.11-1.664l-6-3.998zm-7.387 20.277a1 1 0 00.277 1.387l6 4a1 1 0 001.11 0l6-4a1 1 0 00-1.11-1.664L41 50.8l-5.445-3.63a1 1 0 00-1.387.275z" fill="#323232"/></svg>